<?xml version="1.0" encoding="utf-8"?>
<svg version="1.1" id="meow-kitten" xmlns="http://www.w3.org/2000/svg" xmlns:xlink="http://www.w3.org/1999/xlink" x="0px"
	 y="0px" viewBox="0 0 200 200" enable-background="new 0 0 200 200" xml:space="preserve">
<metadata>
Copyright 2025 Meowdia.
Licensed under CC BY-SA 4.0: https://creativecommons.org/licenses/by-sa/4.0/
</metadata>
<g id="icon_00000049919590571537608740000005982392683411957410_">
	<path id="cat" fill="#FFFFFF" d="M141.9,107.6c-2.1,5.2-5.1,9.9-8.5,14.3c-4.2,5.5-9.4,10-14.9,14.2c-2.2,1.6-4.3,3.3-6.8,4.6
		c-0.8,0.4-1,1-1.3,1.7c-0.6,2.1-1.1,4.2-1.9,6.2c-3.2,8.6-8.4,15.7-16.1,20.8c-0.9,0.6-1.4,0.7-2.2-0.2c-1.8-2-4.1-3.2-6.8-3.8
		c-0.9-0.2-1.1-0.5-1.1-1.3c-0.1-3.1-0.6-6.2-1.7-9.1c-2.9-7.2-9.9-12.5-17.3-11.5c0.1,0.1,0.2,0.3,0.4,0.3
		c9,2.9,13.6,8.9,13.5,18.3c0,2.3-0.4,4.4-3,5.1c-0.8,0.2-1.4,0.7-2.1,1.4c0.4,0,0.6,0,0.8,0c3.6-1,7.1-0.8,10.6,0.5
		c3,1,4.8,3.1,4.9,6.4c0,0.6,0.1,0.8,0.4,1c0.1,0.1,0.3,0.1,0.6,0.1l-41.6,3.1l-0.1-0.1c-0.3-0.3-0.5-0.5-0.8-0.6
		c-4.4-2.1-8-5-10.7-8.9c-2.4-3.7-3.5-7.8-3.5-12.1c0-3,0.5-6,1.6-8.9c2.6-6.9,6.9-12.5,12.7-17c2.7-2.1,5.3-4.1,8.1-6.1
		c0.7-0.5,1.1-0.5,2-0.4c2.8,0.6,5.9,0.5,7.9-0.2c-0.9-0.2-1.6-0.5-2.4-0.7c-4.6-1.1-8.7-3.1-12.3-6.2c-3.9-3.2-6.9-7.4-8-12.4
		c-0.5-2.1-1-4.4-0.8-6.7c0.3-3.3,0.9-6.9-1-10.1c-0.9-1.6-1.3-3.5-1.7-5.3c-1.4-5.5-1.9-11.1-0.9-16.8c0.6-2.9,1.3-5.2,5.7-5.2
		c0.9,0,1.6,0,2.4,0.1c7.2,0.5,13.8,2.8,19.6,7.1c0.7,0.5,1,0.5,1.7,0.1c1.9-1,3.8-1.8,5.9-2.3c2-0.6,4-1.2,6-1
		c1.7,0.1,2-1.2,0.2-1.4c-1-0.1-1.1-0.5-0.9-1.2c1.7-4.1,3.5-8.2,6.5-11.5l0.9-1c1.7-1.6,2.9-1.5,4.6,0.6c3.3,4,5.4,8.7,6.9,13.6
		c0.2,0.8,0.2,1.5,1,2.1c4.8,3.6,9,7.9,12.4,12.8c2.1,3,4.4,5.9,6.5,8.9c0.8,1,0.4,1.1-0.6,1.3c-1.5,0.3-1.9,1-0.8,2
		c1.8,1.6,1.5,3.6,1.2,5.4c-1.2,8.3-5.7,14.7-12.5,19.5c1,0.2,1.8-0.4,2.7-0.7c6.4-2.5,11.1-6.9,15.4-12c2.4-2.9,4.5-6.1,7.2-8.7
		c2-1.8,5.1-2.3,7.4-1c0.7,0.4,0.7,0.8,0.1,1.2c-0.9,1-1.6,2.1-2.1,3.2c1-0.8,2-1.3,3-1.9c0.9-0.5,1.6-1,2.5,0.3
		c1.1,1.7,1.3,2.7,0.3,3.7c-0.6,0.6-1.1,1.1-1.3,2.1c0.9-0.3,1.7-0.6,2.6-0.9C142.7,104.5,142.5,106.1,141.9,107.6z"/>
	<path id="leg" fill="#FFFFFF" d="M129,173.3v0.2l-21.3,1.5c0.1-0.2,0.1,0,0.3-0.2l0.1-0.1c-2.3-1.8-3.8-4.3-5-6.8
		c-0.4-0.7-0.4-1,0.1-1.7c3.8-5.1,6.5-10.9,8.5-16.9c0.3-0.9,0.3-1.7,1-2.5c1.1,5.2,3,10.1,5,14.9c0.3,0.7,0.7,0.7,1.2,0.7
		c3,0,5.6,1.1,7.8,3.2C128.8,167.6,129.1,170.4,129,173.3z"/>
	<path id="frame" fill="#3A3F48" d="M157.7,169.9c-1.2,0.7-2.3,1.2-3.5,1.5c-0.5,0.1-1,0.2-1.4,0.2c-7.3,0.6-14.6,1.1-21.8,1.7
		c-0.7,0-1.3,0.1-2,0.2v-0.2c0.2-3-0.2-5.7-2.4-7.9c-2.2-2.1-4.8-3.2-7.8-3.2c-0.6,0-1,0-1.2-0.7c-2.1-4.8-3.9-9.6-5-14.9
		c-0.7,0.8-0.7,1.6-1,2.5c-2,6-4.7,11.8-8.5,16.9c-0.5,0.7-0.5,1.1-0.1,1.7c1.2,2.6,2.8,5,5,6.8l-0.1,0.1c-0.2,0.2-0.1,0.1-0.2,0.2
		l-15,1.1l-3.5,0.2c-0.3,0-0.5,0-0.6-0.1c-0.3-0.2-0.4-0.4-0.4-0.9c-0.1-3.2-1.9-5.3-4.9-6.4c-3.4-1.2-7-1.4-10.6-0.5H72
		c0.7-0.8,1.3-1.2,2.1-1.4c2.7-0.8,3-2.9,3-5.1c0.1-9.3-4.5-15.4-13.5-18.3c-0.2,0-0.3-0.2-0.4-0.3c7.4-0.9,14.5,4.3,17.3,11.5
		c1.1,3,1.6,6,1.7,9.1c0,0.9,0.3,1.1,1.1,1.3c2.7,0.6,5,1.8,6.8,3.8c0.8,0.9,1.3,0.8,2.2,0.2c7.7-5.1,12.8-12.3,16.1-20.9
		c0.8-2,1.3-4.1,1.9-6.2c0.3-0.8,0.6-1.3,1.3-1.7c2.5-1.2,4.6-3,6.8-4.6c5.5-4.2,10.8-8.7,15-14.2c3.3-4.4,6.4-9.1,8.5-14.3
		c0.6-1.4,0.8-3,0.3-5.1c-0.9,0.3-1.7,0.6-2.6,0.9c0.2-1,0.8-1.5,1.3-2.1c1-1,0.9-2-0.3-3.7c-0.9-1.2-1.6-0.8-2.5-0.3
		c-1,0.6-2.1,1.1-3,1.9c0.5-1.1,1.2-2.3,2.1-3.2c0.6-0.5,0.6-0.9-0.1-1.2c-2.3-1.2-5.4-0.8-7.4,1c-2.8,2.6-4.9,5.8-7.2,8.7
		c-4.3,5-9,9.5-15.4,12c-0.9,0.3-1.6,0.8-2.7,0.7c6.8-4.8,11.2-11.2,12.5-19.5c0.3-1.8,0.6-3.8-1.2-5.4c-1.1-0.9-0.8-1.7,0.8-2
		c1-0.2,1.3-0.3,0.6-1.3c-2.1-3-4.4-5.8-6.5-8.9c-3.3-4.8-7.6-9.1-12.4-12.8c-0.8-0.6-0.8-1.3-1-2.1c-1.4-5-3.5-9.6-6.8-13.6
		c-1.7-2.1-2.9-2.2-4.6-0.6l-0.9,1c-3,3.3-4.8,7.4-6.5,11.5c-0.3,0.8-0.1,1.1,0.9,1.2c1.8,0.2,1.5,1.5-0.2,1.4c-2-0.2-4,0.5-6,1
		c-2.1,0.5-4,1.3-5.9,2.3c-0.7,0.4-1,0.4-1.7-0.1c-5.8-4.4-12.4-6.7-19.6-7.1C45.1,62,44.3,62,43.5,62c-4.4,0-5.1,2.4-5.7,5.2
		c-1,5.6-0.6,11.2,0.8,16.8c0.4,1.8,0.9,3.7,1.7,5.3c1.9,3.2,1.3,6.8,1,10.1c-0.2,2.3,0.3,4.6,0.8,6.7c1.2,4.9,4.1,9.1,8,12.4
		c3.6,3.1,7.7,5.1,12.3,6.2c0.8,0.2,1.5,0.5,2.4,0.7c-2,0.7-5.1,0.8-7.9,0.2c-0.9-0.1-1.3-0.1-2,0.4c-2.8,2-5.4,4-8.1,6.1
		c-5.8,4.6-10.1,10.2-12.7,17c-1.1,2.9-1.6,5.9-1.6,8.9c0,4.3,1.1,8.4,3.5,12.1c2.7,4,6.3,6.9,10.7,9c0.3,0.1,0.5,0.3,0.8,0.6
		l0.1,0.1l-13.2,1h-0.2c-0.5,0-1,0-1.5-0.1c-4.2-0.4-7.4-2.4-10-5.7c-2.3-3-3.2-6.5-3.4-10.2c-2.4-27.2-8.8-109.8-9.9-123.7
		c-0.2-3-0.1-5.9,1.8-8.6c1.3-1.8,4.5-3.2,6.8-3.2c3.7,0.1,6.4,2.3,9.1,4.2c5.5,3.8,28.1,19,34,22.7c2.2,1.3,4.3,3,6.6,4.4
		c1.2,0.8,2.4,2.1,4.3,1.5c0.6-0.2,0.8-0.2,1.1-0.8c1.1-1.8,1.5-3.9,2.7-5.5c1.6-2.4,3.3-5,5.3-7c1-1.1,2.3-2.3,3.6-3
		c2.9-1.7,6.4-1.7,8.8,1.3c3,3.7,4.9,7.8,7,12.2c2.3-2.2,35.9-33.4,40.5-37.2c5.5-4.5,13.5-2.2,14.7,5.5c0.2,1,0.9,10,1.9,22.7v0
		c0.1,1.2,0.2,2.3,0.3,3.5c1.1,14.1,2.5,32.2,3.8,49.2c0.1,0.8,0.1,1.7,0.2,2.5c1.7,22.4,3.2,42.5,3.7,49.1
		C165.9,161.1,163.4,166.3,157.7,169.9z"/>
	<path id="play" fill="#6C429A" d="M189.8,90c-0.8,1.6-2,2.8-3.5,3.4c-3.2,1.4-15.9,6.2-24.9,9.5c-3.2,1.2-6,2.2-7.6,2.7
		c-1.7,0.6-1.5-0.6-1.6-1.4c-0.3-3.5-1.4-6.7-3.4-9.5c-2-3.1-4.4-5.2-7-6.5c-5.3-2.6-11.4-1.5-16.9,3.7c-0.5,0.5-1,1-1.7,1.4
		c-0.6-0.8,3.2-20.2,6.1-34.6c1.5-7.6,2.8-13.8,3.1-15.1c1.3-6.2,7.8-8.2,12.8-4.3c4.3,3.4,8.3,7.1,12.3,10.8v0
		c3.2,3,6.4,6.1,9.6,9.1c3.3,3.1,17.3,16.2,20.4,19C190.8,81.5,191.7,85.8,189.8,90z"/>
	<g id="left-eye">
		<path fill="#3A3F48" d="M78.5,87.5c0,3.6-2.6,6.2-6.2,6.1c-4,0.3-7.2-3.5-7-7.3c0.2-3.4,2-7,5.9-6.8
			C75.1,79.6,78.4,82.8,78.5,87.5z"/>
		<path fill="#FFFFFF" d="M76,85.4c0.1,1-0.6,1.5-1.3,1.6c-0.8,0.1-1.7-1.6-1.6-2.9c0-0.6,0.1-1.3,1.1-1.2
			C75.1,82.9,75.9,84.1,76,85.4z"/>
	</g>
	<g id="right-eye">
		<path fill="#3A3F48" d="M101.6,83c-0.6,1.8-2.1,3-4.2,2.7c-1.6,0.6-3.3,0.2-4.9-0.9c-2.7-1.9-4.1-6.8-2.4-9.4
			c1.9-3,4.8-2.9,7.3-1.6C101.1,75.4,102.8,79.4,101.6,83z"/>
		<path fill="#FFFFFF" d="M99.8,79.2c0,0.7,0.1,1.4-1,1.3c-1-0.1-2-1.4-2-2.6c0-0.7,0.1-1.3,1-1.3C98.9,76.5,99.9,77.9,99.8,79.2z"
			/>
	</g>
	<path fill="#3A3F48" d="M100.8,99.4c0,1.9-2.1,4.6-4.2,4.9c-1.5,0.2-3.1,0.3-4.5-0.1c-1.3-0.4-2-0.3-2.8,0.8
		c-1.7,1.8-5.5,3.5-12.3,1c-0.7-0.5-1-1-1.1-1.9c0-0.6-0.1-1,0.5-1.5c0.7-0.6,1,0.1,1.4,0.3c1,0.8,2.2,1.1,3.4,1.6
		c3.1,1.2,5.9-1.9,6.4-4.4c0.1-0.5,0.2-1.1,0.2-1.6c0-1.1,0.4-2.6-1.5-3c-1.2-0.3-3-0.8-2.8-2.5c0.3-1.9,2-2.6,3.7-3
		c0.8-0.2,1.6-0.1,2.5-0.1c1,0,2-0.4,2.6,0.8c0.6,1.1,0.5,2.1-0.3,3.1c-0.8,1.1-1.6,2.3-1,4c1.1,3.1,3.1,4,6,2.4
		c0.9-0.5,1.4-1,2-1.7c0.4-0.4,0.4-1.4,1.1-1.1C100.7,97.7,100.8,98.6,100.8,99.4z"/>
</g>
</svg>
