<?xml version="1.0" encoding="utf-8"?>
<svg version="1.1" id="meowdia" xmlns="http://www.w3.org/2000/svg" xmlns:xlink="http://www.w3.org/1999/xlink" x="0px" y="0px"
	 viewBox="0 0 738.9 198.4" enable-background="new 0 0 738.9 198.4" xml:space="preserve">
<metadata>
Copyright 2025 Meowdia.
Licensed under CC BY-SA 4.0: https://creativecommons.org/licenses/by-sa/4.0/
</metadata>
<g id="icon">
	<path id="outline" fill="#3A3F48" d="M153.1,167.8c-1,0.7-2.2,1.2-3.3,1.4c-0.4,0.1-0.9,0.2-1.3,0.2c-7.4,0.6-14.8,1.2-22.2,1.7
		c0,0,0-0.1,0-0.1c0.2-2.8-0.1-5.3-2.2-7.4c-2-2-4.4-3-7.3-3c-0.5,0-0.9,0-1.2-0.6c-1.9-4.5-3.7-9-4.7-13.8
		c-0.6,0.7-0.6,1.6-0.9,2.3c-1.9,5.6-4.3,11-7.9,15.8c-0.4,0.6-0.4,1-0.1,1.6c1.2,2.4,2.6,4.7,4.7,6.4c0,0,0,0.1-0.1,0.1
		c-0.3,0.4-0.7,0.2-1,0.2c-5.3,0.4-10.7,0.8-16,1.2c-0.4,0-0.7,0-0.8-0.1c-0.2-0.1-0.3-0.4-0.3-0.9c0-3-1.7-4.9-4.5-6
		c-3.2-1.2-6.5-1.4-9.8-0.5c-0.2,0-0.4,0-0.7,0c0.6-0.7,1.2-1.2,1.9-1.4c2.5-0.7,2.9-2.7,2.9-4.8c0-8.8-4.2-14.4-12.6-17.1
		c-0.1,0-0.2-0.2-0.3-0.3c6.9-0.9,13.5,4,16.2,10.7c1.1,2.8,1.5,5.6,1.6,8.6c0,0.8,0.3,1,1.1,1.2c2.5,0.5,4.6,1.6,6.3,3.5
		c0.7,0.8,1.3,0.7,2,0.2c7.2-4.8,12-11.5,15-19.4c0.7-1.9,1.2-3.8,1.8-5.7c0.2-0.7,0.5-1.2,1.2-1.6c2.3-1.2,4.3-2.8,6.3-4.3
		c5.1-3.9,10-8.1,13.9-13.2c3.2-4.1,6-8.5,7.9-13.3c0.5-1.3,0.7-2.8,0.4-4.3c-0.8,0.3-1.5,0.5-2.4,0.8c0.2-0.9,0.7-1.4,1.2-2
		c1-1,0.8-1.8-0.3-3.4c-0.8-1.2-1.5-0.7-2.3-0.2c-1,0.5-2,1-2.9,1.7c0.5-1.1,1.1-2.2,2-3c0.4-0.5,0.5-0.8-0.1-1.2
		c-2.2-1.2-5.1-0.8-6.9,0.9c-2.6,2.4-4.5,5.4-6.7,8.1c-4,4.8-8.4,8.9-14.3,11.2c-0.8,0.3-1.5,0.8-2.5,0.6
		c6.4-4.5,10.5-10.5,11.7-18.2c0.3-1.8,0.5-3.6-1.2-5.1c-1-0.9-0.7-1.6,0.7-1.9c0.8-0.1,1.2-0.3,0.5-1.2c-2-2.8-4.1-5.4-6.1-8.2
		c-3.2-4.6-7.1-8.5-11.6-11.9c-0.8-0.6-0.7-1.3-0.9-2c-1.4-4.6-3.3-9-6.4-12.7c-1.7-2.1-2.8-2.1-4.7-0.1c-3,3.2-4.8,7.1-6.4,11.1
		c-0.3,0.7-0.1,1,0.8,1.1c1.6,0.2,1.4,1.5-0.2,1.4c-1.9-0.1-3.8,0.5-5.6,1c-1.9,0.5-3.7,1.3-5.5,2.2c-0.6,0.3-1,0.3-1.6-0.1
		c-5.4-4.1-11.5-6.2-18.3-6.7c-0.8,0-1.5-0.1-2.3-0.1c-4.1,0-4.8,2.2-5.3,4.9c-1,5.2-0.6,10.5,0.8,15.6c0.4,1.7,0.8,3.5,1.6,5
		c1.7,3,1.2,6.3,1,9.4c-0.2,2.2,0.2,4.2,0.7,6.2c1.1,4.7,3.8,8.5,7.4,11.6c3.4,2.8,7.2,4.7,11.4,5.8c0.7,0.2,1.4,0.4,2.2,0.6
		c-1.9,0.6-4.8,0.7-7.3,0.1c-0.7-0.2-1.2-0.1-1.8,0.3c-2.6,1.9-5.1,3.7-7.6,5.7c-5.4,4.3-9.4,9.5-11.8,15.9c-1,2.6-1.5,5.4-1.5,8.2
		c0.1,4,1.1,7.9,3.3,11.3c2.4,3.8,5.9,6.5,9.9,8.4c0.2,0.1,0.5,0.2,0.7,0.5c0,0,0.1,0.1,0.1,0.1c-0.8,0.1-1.6,0.1-2.5,0.2
		c-3.5,0.2-6.9,0.8-10.4,0.7c-0.5,0-0.9,0-1.4-0.1c-3.9-0.3-6.9-2.2-9.3-5.3c-2.2-2.8-3-6-3.2-9.5c-2-25.5-7.9-102.5-8.9-115.4
		c-0.2-2.8-0.1-5.5,1.7-8c1.3-1.7,4.2-3,6.3-2.9c3.5,0.1,5.9,2.2,8.5,3.9c5.1,3.5,26.2,17.7,31.7,21.1c2.1,1.3,4,2.8,6.1,4.1
		c1.2,0.7,2.2,1.9,4,1.4c0.5-0.1,0.8-0.2,1.1-0.7c1-1.7,1.5-3.7,2.5-5.2c1.6-2.3,3.1-4.6,5-6.6c1-1.1,2.1-2.1,3.4-2.9
		c2.7-1.6,5.9-1.6,8.1,1.2c2.7,3.4,4.5,7.3,6.5,11.3c2.1-2.1,33.4-31.1,37.7-34.7c5.1-4.2,12.6-2,13.7,5.1c0.2,1.1,1,10.9,2,24.5
		c1.1,13.9,2.5,31.7,3.7,48.2c1.6,20.9,3,39.7,3.5,45.8C160.8,159.5,158.5,164.4,153.1,167.8z"/>
	<path id="button" fill="#6C429A" d="M149.5,107.8c-1.6,0.6-1.4-0.5-1.5-1.3c-0.3-3.2-1.4-6.2-3.2-8.9c-5.8-8.7-14.6-9.8-22.3-2.7
		c-0.5,0.4-1,0.8-1.6,1.3c-0.8-1.1,7.8-43,8.5-46.3c1.2-5.7,7.3-7.7,11.9-4c7.2,5.7,13.7,12.3,20.4,18.6c3.1,2.9,16.2,15.1,19,17.8
		c3.3,3.1,4.1,7.1,2.3,11c-0.7,1.5-1.8,2.6-3.3,3.2C175.7,98.3,155.4,105.7,149.5,107.8z"/>
	<path id="cat" fill="#FFFFFF" d="M138.4,109.6c-1.9,4.8-4.8,9.2-7.9,13.3c-3.9,5.1-8.8,9.3-13.9,13.2c-2,1.5-4,3.1-6.3,4.3
		c-0.7,0.4-1,0.9-1.2,1.6c-0.5,1.9-1,3.9-1.8,5.7c-3,8-7.8,14.6-14.9,19.4c-0.8,0.5-1.3,0.6-2-0.2c-1.6-1.9-3.8-3-6.3-3.5
		c-0.8-0.2-1.1-0.4-1.1-1.2c-0.1-2.9-0.5-5.8-1.6-8.5c-2.6-6.8-9.3-11.6-16.2-10.7c0.1,0.1,0.2,0.3,0.3,0.3
		c8.5,2.7,12.7,8.3,12.6,17.1c0,2.1-0.4,4.1-2.9,4.8c-0.7,0.2-1.3,0.6-1.9,1.4c0.3,0,0.5,0,0.7,0c3.3-0.9,6.6-0.7,9.8,0.5
		c2.8,1,4.4,2.9,4.5,6c0,0.5,0.1,0.8,0.3,0.9c0.1,0.1,0.3,0.1,0.5,0.1l-38.8,3c0,0,0-0.1-0.1-0.1c-0.2-0.3-0.5-0.4-0.7-0.5
		c-4-1.9-7.4-4.6-9.9-8.4c-2.2-3.4-3.2-7.3-3.3-11.3c0-2.8,0.5-5.6,1.5-8.2c2.4-6.4,6.4-11.6,11.8-15.9c2.5-2,5-3.9,7.6-5.7
		c0.6-0.4,1.1-0.5,1.8-0.3c2.5,0.5,5.5,0.4,7.3-0.1c-0.8-0.2-1.5-0.4-2.2-0.6c-4.2-1.1-8.1-3-11.4-5.8c-3.7-3.1-6.4-6.9-7.4-11.6
		c-0.5-2-0.9-4-0.7-6.2c0.2-3.1,0.8-6.3-1-9.4c-0.8-1.5-1.2-3.2-1.6-5c-1.3-5.2-1.8-10.4-0.8-15.6c0.5-2.6,1.2-4.9,5.3-4.9
		c0.8,0,1.5,0,2.3,0.1c6.8,0.4,12.9,2.6,18.3,6.7c0.6,0.5,1,0.4,1.6,0.1c1.8-0.9,3.6-1.7,5.5-2.2c1.8-0.5,3.7-1.1,5.6-1
		c1.6,0.1,1.8-1.2,0.2-1.4c-0.9-0.1-1.1-0.4-0.8-1.1c1.6-3.8,3.3-7.6,6-10.8l0.8-0.8c1.6-1.5,2.6-1.4,4.2,0.5
		c3.1,3.8,5,8.1,6.4,12.7c0.2,0.7,0.2,1.4,0.9,2c4.5,3.4,8.4,7.3,11.6,11.9c1.9,2.8,4.1,5.5,6.1,8.2c0.7,1,0.3,1.1-0.5,1.2
		c-1.4,0.3-1.7,0.9-0.7,1.9c1.7,1.5,1.4,3.3,1.2,5.1c-1.1,7.8-5.3,13.7-11.7,18.2c1,0.2,1.7-0.3,2.5-0.6c5.9-2.3,10.4-6.5,14.3-11.2
		c2.2-2.7,4.1-5.7,6.7-8.1c1.8-1.7,4.8-2.2,6.9-0.9c0.7,0.4,0.6,0.7,0.1,1.2c-0.8,0.9-1.5,1.9-2,3.1c0.9-0.7,1.9-1.2,2.9-1.7
		c0.8-0.4,1.5-0.9,2.3,0.2c1.1,1.6,1.2,2.5,0.3,3.4c-0.5,0.5-1,1.1-1.2,2c0.8-0.3,1.6-0.5,2.4-0.8
		C139.1,106.8,139,108.3,138.4,109.6z"/>
	<g id="left-eye">
		<path fill="#3A3F48" d="M79.3,91c0,3.4-2.4,5.7-5.7,5.7c-3.8,0.3-6.8-3.3-6.6-6.8c0.2-3.2,1.9-6.5,5.5-6.4
			C76.1,83.6,79.2,86.6,79.3,91z"/>
		<path fill="#FFFFFF" d="M77,89c0,1-0.5,1.4-1.3,1.5c-0.7,0.1-1.6-1.5-1.6-2.7c0-0.5,0.1-1.2,1-1.2C76.1,86.7,77,87.9,77,89z"/>
	</g>
	<g id="right-eye">
		<path fill="#3A3F48" d="M100.9,86.8c-0.5,1.7-2,2.8-3.9,2.5c-1.5,0.5-3.1,0.1-4.5-0.9c-2.5-1.8-3.8-6.3-2.2-8.8
			c1.7-2.8,4.4-2.7,6.8-1.5C100.4,79.6,101.9,83.4,100.9,86.8z"/>
		<path fill="#FFFFFF" d="M99.2,83.2c0,0.6,0.1,1.3-0.9,1.3c-0.9,0-1.9-1.3-1.9-2.4c0-0.7,0.1-1.2,1-1.2
			C98.3,80.8,99.2,82,99.2,83.2z"/>
	</g>
	<path id="mouth" fill="#3A3F48" d="M100.1,102c0,1.8-2,4.2-3.9,4.5c-1.4,0.2-2.9,0.3-4.2-0.1c-1.2-0.4-1.8-0.2-2.7,0.7
		c-1.6,1.7-5.1,3.3-11.5,0.9c-0.6-0.4-1-1-1-1.7c0-0.5,0-1,0.4-1.4c0.6-0.5,1,0.1,1.4,0.3c1,0.7,2,1.1,3.2,1.5c3,1.2,5.5-1.8,6-4.1
		c0.1-0.5,0.1-1,0.1-1.5c0-1.1,0.4-2.4-1.4-2.9c-1.1-0.3-2.8-0.7-2.6-2.3c0.3-1.7,1.9-2.4,3.5-2.8c0.7-0.2,1.5-0.1,2.3,0
		c0.8,0,1.8-0.4,2.4,0.7c0.5,1,0.5,2-0.3,3c-0.8,1-1.5,2.1-0.9,3.7c1,2.9,2.8,3.7,5.6,2.3c0.8-0.4,1.3-1,1.9-1.6
		c0.4-0.4,0.3-1.4,1.1-1.1C100,100.5,100.1,101.3,100.1,102z"/>
</g>
<g id="text">
	<path fill="#3A3F48" d="M284.8,161.5c-0.9,1.3-2.5,2.2-4.7,2.6c-2,0.4-3.8,0.7-5.6,0.1c-2.9-0.9-3.9-2.1-4.4-5.5
		c-1.2-8.4-2.2-17-3.2-25.4c-0.3-2.5-0.6-4.9-0.9-7.4c-0.1-1.2-0.3-2.3-0.4-3.5c-0.4-3.6-0.7-7.3-1.8-11.1l-2.2-8l-5.9,17.8
		c-2.9,8.7-5.8,17.3-8.6,26l-0.1,0.4c-1.1,3.4-1.7,4.6-3.8,5c-5.6,1-8.1,0-10-4.1c-3.7-7.7-7.6-15.4-11.4-22.9
		c-1.7-3.4-3.4-6.8-5.1-10.2c-0.9-2.2-2.8-2.2-3.5-2.1l-2,0.3l-0.1,2.1c-0.1,2-0.1,4-0.1,5.9c0,1.3,0,2.5,0,3.8
		c-0.1,4.1,0,8.2,0.1,12.2c0.1,4.4,0.2,8.9,0.1,13.2c-0.1,1.8,0,3.6,0.1,5.4c0.1,2.7,0.2,5.2-0.1,7.7c-0.5,4-2.4,4.2-3.3,4.3
		c-2.5,0.3-5.3,0.5-8.4,0.6h-0.1c-2.1,0-3.7-1.6-3.9-4c-0.4-4.2-0.2-8.3,0-12.7c0.1-2.1,0.2-4.2,0.2-6.4c0-1.3,0-2.7,0-4
		c0-2-0.1-3.8,0-5.7c0.3-4.7,0.2-9.5,0.1-14.1c0-2.3,0-4.7,0-7l0-2.1c0-9.5,0.1-19.3,0.3-29c0.1-3.1,2.3-4,4.2-4.2
		c3.8-0.4,7.7-0.6,11.1-0.8h0.3c1.4,0,2.9,0.5,4.1,3.3c2.4,5.2,4.8,10.4,7.2,15.4l1.8,3.8c2.6,5.5,5.2,11,7.8,16.6l6.3,13.4l2-5.9
		c0.8-2.4,1.5-4.7,2.3-6.9c1.7-5.2,3.3-10,4.9-15c2.2-7.1,4.5-14.4,6.5-21.9c1.2-4.4,3.3-5.3,6.1-5.4c1.6,0,3.1-0.2,4.7-0.3
		c1.8-0.1,3.5-0.3,5.1-0.2c2.3,0,4,1.5,4.3,3.9c0.4,2.9,0.7,5.8,1,8.6c0.5,4.2,1,8.6,1.7,12.9c0.5,2.8,0.8,5.7,1.1,8.5
		c0.5,3.9,0.9,8,1.8,12c0.6,2.7,0.8,5.5,1.1,8.5c0.2,1.8,0.4,3.7,0.6,5.6l0.4,3.2c0.8,5.6,1.5,11.3,2.6,16.9
		C286,158.1,285.8,160.1,284.8,161.5z"/>
	<path fill="#3A3F48" d="M362.1,128c0,2.1-0.5,3.6-1.4,4.6c-0.9,1-2.2,1.5-3.8,1.5h-36.7c0,2.6,0.3,4.9,0.9,7
		c0.6,2.1,1.6,3.9,2.9,5.3c1.3,1.5,3,2.6,5.1,3.3c2.1,0.8,4.6,1.2,7.5,1.2c3,0,5.6-0.2,7.9-0.6c2.3-0.4,4.2-0.9,5.9-1.4
		c1.6-0.5,3-1,4.1-1.4c1.1-0.4,2-0.6,2.6-0.6c0.4,0,0.7,0.1,1,0.2c0.3,0.2,0.5,0.4,0.7,0.8c0.2,0.4,0.3,1,0.4,1.7
		c0.1,0.7,0.1,1.7,0.1,2.8c0,1,0,1.8-0.1,2.5c0,0.7-0.1,1.3-0.2,1.8c-0.1,0.5-0.2,0.9-0.4,1.3c-0.2,0.3-0.4,0.7-0.7,1
		c-0.3,0.3-1.1,0.7-2.4,1.3c-1.3,0.5-3,1.1-5,1.6c-2,0.5-4.4,1-7,1.4c-2.6,0.4-5.4,0.6-8.4,0.6c-5.4,0-10.1-0.7-14.1-2
		c-4-1.4-7.4-3.4-10.1-6.2c-2.7-2.8-4.7-6.2-6.1-10.4c-1.3-4.2-2-9.1-2-14.8c0-5.4,0.7-10.2,2.1-14.5c1.4-4.3,3.4-8,6.1-11
		c2.7-3,5.9-5.3,9.7-6.9c3.8-1.6,8.1-2.4,12.9-2.4c5.1,0,9.4,0.7,13,2.2c3.6,1.5,6.5,3.6,8.8,6.2s4,5.8,5.1,9.4
		c1.1,3.6,1.6,7.5,1.6,11.8V128z M345.5,123.1c0.1-4.8-0.8-8.5-2.9-11.3c-2.1-2.7-5.2-4.1-9.5-4.1c-2.2,0-4,0.4-5.7,1.2
		c-1.6,0.8-2.9,1.9-4,3.3c-1.1,1.4-1.9,3-2.4,4.9c-0.6,1.9-0.9,3.9-1,6H345.5z"/>
	<path fill="#3A3F48" d="M439.2,129.1c0,5.1-0.7,9.8-2,14.1c-1.4,4.2-3.4,7.9-6.2,11c-2.8,3.1-6.2,5.4-10.4,7.1
		c-4.2,1.7-9,2.5-14.5,2.5c-5.4,0-10-0.7-14-2.2s-7.3-3.7-9.9-6.5c-2.6-2.8-4.6-6.3-5.8-10.5c-1.3-4.2-1.9-8.9-1.9-14.2
		c0-5.1,0.7-9.8,2.1-14.1c1.4-4.3,3.4-7.9,6.2-11c2.8-3,6.2-5.4,10.3-7.1c4.1-1.7,9-2.5,14.5-2.5c5.4,0,10.1,0.7,14.1,2.2
		c4,1.5,7.3,3.6,9.8,6.5c2.6,2.8,4.5,6.3,5.8,10.5C438.5,119,439.2,123.7,439.2,129.1z M421.7,129.8c0-3-0.2-5.7-0.7-8.2
		s-1.3-4.7-2.4-6.5c-1.1-1.8-2.6-3.3-4.5-4.3c-1.9-1-4.2-1.6-7.1-1.6c-2.5,0-4.7,0.5-6.6,1.4c-1.9,0.9-3.5,2.3-4.7,4.1
		c-1.2,1.8-2.1,3.9-2.7,6.4c-0.6,2.5-0.9,5.4-0.9,8.6c0,3,0.2,5.7,0.7,8.2c0.5,2.5,1.3,4.7,2.4,6.5c1.1,1.9,2.6,3.3,4.5,4.3
		c1.9,1,4.2,1.5,7,1.5c2.6,0,4.8-0.5,6.7-1.4c1.9-0.9,3.5-2.3,4.7-4c1.2-1.8,2.1-3.9,2.7-6.4C421.4,135.8,421.7,133,421.7,129.8z"/>
	<path fill="#3A3F48" d="M546.8,99.4c0,0.5-0.1,1.1-0.2,1.8c-0.1,0.7-0.4,1.8-0.7,3.1L529.8,159c-0.2,0.8-0.5,1.4-0.9,1.9
		c-0.4,0.5-0.9,0.8-1.7,1.1c-0.7,0.3-1.8,0.5-3.2,0.5c-1.4,0.1-3.2,0.1-5.4,0.1c-2.2,0-4-0.1-5.4-0.2c-1.4-0.1-2.5-0.3-3.3-0.6
		c-0.8-0.3-1.4-0.6-1.7-1.1c-0.4-0.5-0.6-1.1-0.8-1.8l-10.2-36.7l-0.1-0.6l-0.1,0.6l-9.3,36.7c-0.2,0.8-0.4,1.4-0.8,1.9
		c-0.3,0.5-0.9,0.8-1.7,1.1c-0.8,0.3-1.9,0.5-3.3,0.5c-1.4,0.1-3.2,0.1-5.4,0.1c-2.3,0-4.1-0.1-5.4-0.2c-1.4-0.1-2.5-0.3-3.2-0.6
		c-0.8-0.3-1.4-0.6-1.7-1.1s-0.6-1.1-0.8-1.8l-16-54.6c-0.4-1.3-0.7-2.3-0.8-3.1c-0.1-0.7-0.2-1.4-0.2-1.9c0-0.5,0.1-0.8,0.4-1.2
		c0.2-0.3,0.7-0.6,1.4-0.8c0.7-0.2,1.5-0.3,2.6-0.4c1.1-0.1,2.5-0.1,4.2-0.1c1.8,0,3.3,0,4.4,0.1c1.1,0.1,2,0.2,2.6,0.5
		c0.6,0.2,1.1,0.5,1.3,0.9c0.2,0.4,0.4,0.8,0.6,1.4l12,44.3l0.1,0.8l0.1-0.8l11.2-44.3c0.1-0.5,0.3-1,0.6-1.4
		c0.3-0.4,0.7-0.7,1.3-0.9c0.6-0.2,1.4-0.4,2.5-0.5c1.1-0.1,2.4-0.1,4.1-0.1c1.7,0,3,0.1,4.1,0.2c1,0.1,1.9,0.3,2.5,0.5
		s1,0.5,1.3,0.8c0.2,0.3,0.4,0.7,0.6,1.2l12,44.7l0.2,0.7l0.1-0.8L530,99.7c0.1-0.5,0.3-1,0.5-1.4c0.3-0.4,0.7-0.7,1.4-0.9
		c0.6-0.2,1.5-0.4,2.6-0.5c1.1-0.1,2.5-0.1,4.1-0.1c1.7,0,3,0,4.1,0.1c1.1,0.1,1.9,0.2,2.5,0.4c0.6,0.2,1,0.5,1.3,0.8
		C546.7,98.6,546.8,99,546.8,99.4z"/>
	<path fill="#3A3F48" d="M616,159.9c0,0.5-0.1,0.9-0.3,1.3c-0.2,0.3-0.6,0.6-1.2,0.8c-0.5,0.2-1.3,0.4-2.2,0.5
		c-0.9,0.1-2.1,0.1-3.4,0.1c-1.4,0-2.6,0-3.5-0.1c-0.9-0.1-1.6-0.2-2.2-0.5c-0.6-0.2-1-0.5-1.2-0.8s-0.4-0.8-0.4-1.3v-6.7
		c-3.1,3.3-6.4,5.9-9.8,7.8c-3.4,1.8-7.2,2.8-11.3,2.8c-4.6,0-8.5-0.9-11.7-2.7c-3.2-1.8-5.8-4.2-7.8-7.2c-2-3-3.5-6.6-4.4-10.6
		c-0.9-4-1.4-8.3-1.4-12.8c0-5.4,0.6-10.2,1.7-14.5c1.2-4.3,2.8-7.9,5-11c2.2-3,5-5.3,8.3-7c3.3-1.6,7.1-2.4,11.4-2.4
		c3.4,0,6.5,0.7,9.2,2.1c2.8,1.4,5.5,3.4,8.2,6.1V71.1c0-0.5,0.1-0.9,0.4-1.2c0.2-0.4,0.7-0.7,1.4-0.9c0.7-0.2,1.5-0.4,2.6-0.6
		s2.5-0.2,4.1-0.2s3,0.1,4.1,0.2s1.9,0.3,2.6,0.6c0.6,0.2,1.1,0.6,1.4,0.9c0.3,0.4,0.4,0.8,0.4,1.2V159.9z M599.1,119.6
		c-2.4-3.1-4.8-5.4-7-7c-2.2-1.6-4.6-2.4-7-2.4c-2.2,0-4.1,0.6-5.7,1.7c-1.6,1.1-2.9,2.6-3.9,4.4c-1,1.9-1.7,3.9-2.2,6.2
		c-0.5,2.3-0.7,4.6-0.7,7c0,2.5,0.2,5,0.6,7.4c0.4,2.4,1.1,4.5,2,6.4c0.9,1.9,2.2,3.4,3.7,4.5c1.5,1.1,3.5,1.7,5.8,1.7
		c1.2,0,2.3-0.2,3.4-0.5s2.2-0.9,3.4-1.7c1.2-0.8,2.3-1.8,3.6-3c1.2-1.2,2.5-2.8,4-4.6V119.6z"/>
	<path fill="#3A3F48" d="M653.6,79.1c0,3.4-0.7,5.8-2.1,7.1c-1.4,1.3-4,2-7.8,2c-3.8,0-6.4-0.6-7.7-1.9c-1.3-1.3-2-3.5-2-6.8
		c0-3.4,0.7-5.8,2.1-7.1c1.4-1.3,4-2,7.8-2c3.8,0,6.4,0.6,7.7,1.9C652.9,73.5,653.6,75.8,653.6,79.1z M652.3,159.9
		c0,0.5-0.1,0.8-0.4,1.2s-0.7,0.6-1.4,0.8c-0.7,0.2-1.5,0.4-2.6,0.5c-1.1,0.1-2.5,0.2-4.1,0.2s-3-0.1-4.1-0.2
		c-1.1-0.1-2-0.3-2.6-0.5c-0.7-0.2-1.1-0.5-1.4-0.8s-0.4-0.7-0.4-1.2V99.7c0-0.5,0.1-0.8,0.4-1.2s0.7-0.6,1.4-0.9
		c0.7-0.2,1.5-0.4,2.6-0.6c1.1-0.1,2.5-0.2,4.1-0.2s3,0.1,4.1,0.2c1.1,0.1,2,0.3,2.6,0.6c0.7,0.2,1.1,0.5,1.4,0.9s0.4,0.7,0.4,1.2
		V159.9z"/>
	<path fill="#3A3F48" d="M722.8,160.1c0,0.6-0.2,1.1-0.7,1.5c-0.5,0.4-1.2,0.6-2.1,0.8c-1,0.2-2.4,0.2-4.3,0.2c-2,0-3.5-0.1-4.4-0.2
		c-0.9-0.2-1.6-0.4-2-0.8c-0.4-0.4-0.6-0.9-0.6-1.5v-4.8c-2.5,2.7-5.3,4.7-8.5,6.2s-6.7,2.2-10.6,2.2c-3.2,0-6.1-0.4-8.8-1.3
		c-2.7-0.8-5-2.1-7-3.7c-2-1.6-3.5-3.7-4.6-6.1c-1.1-2.4-1.6-5.3-1.6-8.5c0-3.5,0.7-6.6,2.1-9.2c1.4-2.6,3.4-4.7,6.2-6.4
		c2.7-1.7,6.1-2.9,10.2-3.8c4.1-0.8,8.8-1.2,14.1-1.2h5.9v-3.7c0-1.9-0.2-3.6-0.6-5c-0.4-1.4-1-2.6-1.9-3.6
		c-0.9-0.9-2.1-1.6-3.5-2.1c-1.5-0.5-3.3-0.7-5.4-0.7c-2.8,0-5.4,0.3-7.6,0.9c-2.2,0.6-4.2,1.3-5.9,2.1c-1.7,0.8-3.1,1.5-4.3,2.1
		c-1.2,0.6-2.1,0.9-2.8,0.9c-0.5,0-0.9-0.2-1.3-0.5c-0.4-0.3-0.7-0.8-0.9-1.4c-0.2-0.6-0.4-1.3-0.6-2.2c-0.1-0.9-0.2-1.8-0.2-2.8
		c0-1.4,0.1-2.5,0.3-3.3c0.2-0.8,0.7-1.5,1.3-2.2c0.6-0.7,1.7-1.4,3.3-2.2c1.6-0.8,3.4-1.5,5.5-2.2c2.1-0.7,4.4-1.2,6.9-1.7
		c2.5-0.4,5.1-0.6,7.7-0.6c4.7,0,8.8,0.5,12.1,1.4c3.4,0.9,6.1,2.3,8.3,4.3c2.2,1.9,3.7,4.4,4.7,7.4c1,3,1.5,6.6,1.5,10.8V160.1z
		 M706.1,134.3h-6.5c-2.8,0-5.1,0.2-7,0.6c-1.9,0.4-3.5,1-4.7,1.8s-2.1,1.8-2.7,2.9c-0.6,1.2-0.8,2.5-0.8,4c0,2.5,0.8,4.5,2.4,6
		c1.6,1.4,3.8,2.2,6.7,2.2c2.4,0,4.6-0.6,6.6-1.8c2-1.2,4-3,6.1-5.3V134.3z"/>
</g>
</svg>
