<?xml version="1.0" encoding="utf-8"?>
<svg version="1.1" id="meowdia" xmlns="http://www.w3.org/2000/svg" xmlns:xlink="http://www.w3.org/1999/xlink" x="0px" y="0px"
	 viewBox="0 0 738.9 161.5" enable-background="new 0 0 738.9 161.5" xml:space="preserve">
<metadata>
Copyright 2025 Meowdia.
Licensed under CC BY-SA 4.0: https://creativecommons.org/licenses/by-sa/4.0/
</metadata>
<g id="text">
	<path fill="#3A3F48" d="M284.8,124.6c-0.9,1.3-2.5,2.2-4.7,2.6c-2,0.4-3.8,0.7-5.6,0.1c-2.9-0.9-3.9-2.1-4.4-5.5
		c-1.2-8.4-2.2-17-3.2-25.4c-0.3-2.5-0.6-4.9-0.9-7.4c-0.1-1.2-0.3-2.3-0.4-3.5c-0.4-3.6-0.7-7.3-1.8-11.1l-2.2-8l-5.9,17.8
		c-2.9,8.7-5.8,17.3-8.6,26l-0.1,0.4c-1.1,3.4-1.7,4.6-3.8,5c-5.6,1-8.1,0-10-4.1c-3.7-7.7-7.6-15.4-11.4-22.9
		c-1.7-3.4-3.4-6.8-5.1-10.2c-0.9-2.2-2.8-2.2-3.5-2.1l-2,0.3l-0.1,2.1c-0.1,2-0.1,4-0.1,5.9c0,1.3,0,2.5,0,3.8
		c-0.1,4.1,0,8.2,0.1,12.2c0.1,4.4,0.2,8.9,0.1,13.2c-0.1,1.8,0,3.6,0.1,5.4c0.1,2.7,0.2,5.2-0.1,7.7c-0.5,4-2.4,4.2-3.3,4.3
		c-2.5,0.3-5.3,0.5-8.4,0.6h-0.1c-2.1,0-3.7-1.6-3.9-4c-0.4-4.2-0.2-8.3,0-12.7c0.1-2.1,0.2-4.2,0.2-6.4c0-1.3,0-2.7,0-4
		c0-2-0.1-3.8,0-5.7c0.3-4.7,0.2-9.5,0.1-14.1c0-2.3,0-4.7,0-7v-2.1c0-9.5,0.1-19.3,0.3-29c0.1-3.1,2.3-4,4.2-4.2
		c3.8-0.4,7.7-0.6,11.1-0.8h0.3c1.4,0,2.9,0.5,4.1,3.3c2.4,5.2,4.8,10.4,7.2,15.4l1.8,3.8c2.6,5.5,5.2,11,7.8,16.6l6.3,13.4l2-5.9
		c0.8-2.4,1.5-4.7,2.3-6.9c1.7-5.2,3.3-10,4.9-15c2.2-7.1,4.5-14.4,6.5-21.9c1.2-4.4,3.3-5.3,6.1-5.4c1.6,0,3.1-0.2,4.7-0.3
		c1.8-0.1,3.5-0.3,5.1-0.2c2.3,0,4,1.5,4.3,3.9c0.4,2.9,0.7,5.8,1,8.6c0.5,4.2,1,8.6,1.7,12.9c0.5,2.8,0.8,5.7,1.1,8.5
		c0.5,3.9,0.9,8,1.8,12c0.6,2.7,0.8,5.5,1.1,8.5c0.2,1.8,0.4,3.7,0.6,5.6l0.4,3.2c0.8,5.6,1.5,11.3,2.6,16.9
		C286,121.2,285.8,123.2,284.8,124.6z"/>
	<path fill="#3A3F48" d="M362.1,91.1c0,2.1-0.5,3.6-1.4,4.6s-2.2,1.5-3.8,1.5h-36.7c0,2.6,0.3,4.9,0.9,7s1.6,3.9,2.9,5.3
		c1.3,1.5,3,2.6,5.1,3.3c2.1,0.8,4.6,1.2,7.5,1.2c3,0,5.6-0.2,7.9-0.6c2.3-0.4,4.2-0.9,5.9-1.4c1.6-0.5,3-1,4.1-1.4s2-0.6,2.6-0.6
		c0.4,0,0.7,0.1,1,0.2c0.3,0.2,0.5,0.4,0.7,0.8c0.2,0.4,0.3,1,0.4,1.7s0.1,1.7,0.1,2.8c0,1,0,1.8-0.1,2.5c0,0.7-0.1,1.3-0.2,1.8
		s-0.2,0.9-0.4,1.3c-0.2,0.3-0.4,0.7-0.7,1c-0.3,0.3-1.1,0.7-2.4,1.3c-1.3,0.5-3,1.1-5,1.6s-4.4,1-7,1.4s-5.4,0.6-8.4,0.6
		c-5.4,0-10.1-0.7-14.1-2c-4-1.4-7.4-3.4-10.1-6.2s-4.7-6.2-6.1-10.4c-1.3-4.2-2-9.1-2-14.8c0-5.4,0.7-10.2,2.1-14.5s3.4-8,6.1-11
		s5.9-5.3,9.7-6.9c3.8-1.6,8.1-2.4,12.9-2.4c5.1,0,9.4,0.7,13,2.2s6.5,3.6,8.8,6.2s4,5.8,5.1,9.4s1.6,7.5,1.6,11.8V91.1z
		 M345.5,86.2c0.1-4.8-0.8-8.5-2.9-11.3c-2.1-2.7-5.2-4.1-9.5-4.1c-2.2,0-4,0.4-5.7,1.2c-1.6,0.8-2.9,1.9-4,3.3s-1.9,3-2.4,4.9
		c-0.6,1.9-0.9,3.9-1,6H345.5z"/>
	<path fill="#3A3F48" d="M439.2,92.2c0,5.1-0.7,9.8-2,14.1c-1.4,4.2-3.4,7.9-6.2,11c-2.8,3.1-6.2,5.4-10.4,7.1
		c-4.2,1.7-9,2.5-14.5,2.5c-5.4,0-10-0.7-14-2.2s-7.3-3.7-9.9-6.5s-4.6-6.3-5.8-10.5c-1.3-4.2-1.9-8.9-1.9-14.2
		c0-5.1,0.7-9.8,2.1-14.1c1.4-4.3,3.4-7.9,6.2-11c2.8-3,6.2-5.4,10.3-7.1c4.1-1.7,9-2.5,14.5-2.5c5.4,0,10.1,0.7,14.1,2.2
		s7.3,3.6,9.8,6.5c2.6,2.8,4.5,6.3,5.8,10.5C438.5,82.1,439.2,86.8,439.2,92.2z M421.7,92.9c0-3-0.2-5.7-0.7-8.2s-1.3-4.7-2.4-6.5
		s-2.6-3.3-4.5-4.3s-4.2-1.6-7.1-1.6c-2.5,0-4.7,0.5-6.6,1.4s-3.5,2.3-4.7,4.1c-1.2,1.8-2.1,3.9-2.7,6.4s-0.9,5.4-0.9,8.6
		c0,3,0.2,5.7,0.7,8.2s1.3,4.7,2.4,6.5c1.1,1.9,2.6,3.3,4.5,4.3s4.2,1.5,7,1.5c2.6,0,4.8-0.5,6.7-1.4c1.9-0.9,3.5-2.3,4.7-4
		c1.2-1.8,2.1-3.9,2.7-6.4C421.4,98.9,421.7,96.1,421.7,92.9z"/>
	<path fill="#3A3F48" d="M546.8,62.5c0,0.5-0.1,1.1-0.2,1.8c-0.1,0.7-0.4,1.8-0.7,3.1l-16.1,54.7c-0.2,0.8-0.5,1.4-0.9,1.9
		s-0.9,0.8-1.7,1.1c-0.7,0.3-1.8,0.5-3.2,0.5c-1.4,0.1-3.2,0.1-5.4,0.1s-4-0.1-5.4-0.2c-1.4-0.1-2.5-0.3-3.3-0.6s-1.4-0.6-1.7-1.1
		c-0.4-0.5-0.6-1.1-0.8-1.8l-10.2-36.7l-0.1-0.6l-0.1,0.6l-9.3,36.7c-0.2,0.8-0.4,1.4-0.8,1.9c-0.3,0.5-0.9,0.8-1.7,1.1
		c-0.8,0.3-1.9,0.5-3.3,0.5c-1.4,0.1-3.2,0.1-5.4,0.1c-2.3,0-4.1-0.1-5.4-0.2c-1.4-0.1-2.5-0.3-3.2-0.6c-0.8-0.3-1.4-0.6-1.7-1.1
		s-0.6-1.1-0.8-1.8l-16-54.6c-0.4-1.3-0.7-2.3-0.8-3.1c-0.1-0.7-0.2-1.4-0.2-1.9s0.1-0.8,0.4-1.2c0.2-0.3,0.7-0.6,1.4-0.8
		c0.7-0.2,1.5-0.3,2.6-0.4s2.5-0.1,4.2-0.1c1.8,0,3.3,0,4.4,0.1s2,0.2,2.6,0.5c0.6,0.2,1.1,0.5,1.3,0.9c0.2,0.4,0.4,0.8,0.6,1.4
		l12,44.3l0.1,0.8l0.1-0.8l11.2-44.3c0.1-0.5,0.3-1,0.6-1.4c0.3-0.4,0.7-0.7,1.3-0.9c0.6-0.2,1.4-0.4,2.5-0.5s2.4-0.1,4.1-0.1
		s3,0.1,4.1,0.2c1,0.1,1.9,0.3,2.5,0.5s1,0.5,1.3,0.8c0.2,0.3,0.4,0.7,0.6,1.2l12,44.7l0.2,0.7l0.1-0.8L530,62.8
		c0.1-0.5,0.3-1,0.5-1.4c0.3-0.4,0.7-0.7,1.4-0.9c0.6-0.2,1.5-0.4,2.6-0.5s2.5-0.1,4.1-0.1c1.7,0,3,0,4.1,0.1s1.9,0.2,2.5,0.4
		c0.6,0.2,1,0.5,1.3,0.8C546.7,61.7,546.8,62.1,546.8,62.5z"/>
	<path fill="#3A3F48" d="M616,123c0,0.5-0.1,0.9-0.3,1.3c-0.2,0.3-0.6,0.6-1.2,0.8c-0.5,0.2-1.3,0.4-2.2,0.5s-2.1,0.1-3.4,0.1
		c-1.4,0-2.6,0-3.5-0.1s-1.6-0.2-2.2-0.5c-0.6-0.2-1-0.5-1.2-0.8s-0.4-0.8-0.4-1.3v-6.7c-3.1,3.3-6.4,5.9-9.8,7.8
		c-3.4,1.8-7.2,2.8-11.3,2.8c-4.6,0-8.5-0.9-11.7-2.7S563,120,561,117s-3.5-6.6-4.4-10.6s-1.4-8.3-1.4-12.8c0-5.4,0.6-10.2,1.7-14.5
		c1.2-4.3,2.8-7.9,5-11c2.2-3,5-5.3,8.3-7c3.3-1.6,7.1-2.4,11.4-2.4c3.4,0,6.5,0.7,9.2,2.1c2.8,1.4,5.5,3.4,8.2,6.1V34.2
		c0-0.5,0.1-0.9,0.4-1.2c0.2-0.4,0.7-0.7,1.4-0.9c0.7-0.2,1.5-0.4,2.6-0.6s2.5-0.2,4.1-0.2s3,0.1,4.1,0.2s1.9,0.3,2.6,0.6
		c0.6,0.2,1.1,0.6,1.4,0.9c0.3,0.4,0.4,0.8,0.4,1.2L616,123L616,123z M599.1,82.7c-2.4-3.1-4.8-5.4-7-7s-4.6-2.4-7-2.4
		c-2.2,0-4.1,0.6-5.7,1.7c-1.6,1.1-2.9,2.6-3.9,4.4c-1,1.9-1.7,3.9-2.2,6.2c-0.5,2.3-0.7,4.6-0.7,7c0,2.5,0.2,5,0.6,7.4
		c0.4,2.4,1.1,4.5,2,6.4s2.2,3.4,3.7,4.5s3.5,1.7,5.8,1.7c1.2,0,2.3-0.2,3.4-0.5s2.2-0.9,3.4-1.7s2.3-1.8,3.6-3
		c1.2-1.2,2.5-2.8,4-4.6L599.1,82.7L599.1,82.7z"/>
	<path fill="#3A3F48" d="M653.6,42.2c0,3.4-0.7,5.8-2.1,7.1c-1.4,1.3-4,2-7.8,2s-6.4-0.6-7.7-1.9s-2-3.5-2-6.8
		c0-3.4,0.7-5.8,2.1-7.1c1.4-1.3,4-2,7.8-2s6.4,0.6,7.7,1.9C652.9,36.6,653.6,38.9,653.6,42.2z M652.3,123c0,0.5-0.1,0.8-0.4,1.2
		s-0.7,0.6-1.4,0.8s-1.5,0.4-2.6,0.5s-2.5,0.2-4.1,0.2s-3-0.1-4.1-0.2c-1.1-0.1-2-0.3-2.6-0.5c-0.7-0.2-1.1-0.5-1.4-0.8
		s-0.4-0.7-0.4-1.2V62.8c0-0.5,0.1-0.8,0.4-1.2s0.7-0.6,1.4-0.9c0.7-0.2,1.5-0.4,2.6-0.6c1.1-0.1,2.5-0.2,4.1-0.2s3,0.1,4.1,0.2
		s2,0.3,2.6,0.6c0.7,0.2,1.1,0.5,1.4,0.9s0.4,0.7,0.4,1.2V123z"/>
	<path fill="#3A3F48" d="M722.8,123.2c0,0.6-0.2,1.1-0.7,1.5s-1.2,0.6-2.1,0.8c-1,0.2-2.4,0.2-4.3,0.2c-2,0-3.5-0.1-4.4-0.2
		c-0.9-0.2-1.6-0.4-2-0.8c-0.4-0.4-0.6-0.9-0.6-1.5v-4.8c-2.5,2.7-5.3,4.7-8.5,6.2s-6.7,2.2-10.6,2.2c-3.2,0-6.1-0.4-8.8-1.3
		c-2.7-0.8-5-2.1-7-3.7c-2-1.6-3.5-3.7-4.6-6.1c-1.1-2.4-1.6-5.3-1.6-8.5c0-3.5,0.7-6.6,2.1-9.2c1.4-2.6,3.4-4.7,6.2-6.4
		c2.7-1.7,6.1-2.9,10.2-3.8c4.1-0.8,8.8-1.2,14.1-1.2h5.9v-3.7c0-1.9-0.2-3.6-0.6-5c-0.4-1.4-1-2.6-1.9-3.6
		c-0.9-0.9-2.1-1.6-3.5-2.1c-1.5-0.5-3.3-0.7-5.4-0.7c-2.8,0-5.4,0.3-7.6,0.9c-2.2,0.6-4.2,1.3-5.9,2.1c-1.7,0.8-3.1,1.5-4.3,2.1
		s-2.1,0.9-2.8,0.9c-0.5,0-0.9-0.2-1.3-0.5c-0.4-0.3-0.7-0.8-0.9-1.4s-0.4-1.3-0.6-2.2c-0.1-0.9-0.2-1.8-0.2-2.8
		c0-1.4,0.1-2.5,0.3-3.3s0.7-1.5,1.3-2.2s1.7-1.4,3.3-2.2c1.6-0.8,3.4-1.5,5.5-2.2s4.4-1.2,6.9-1.7c2.5-0.4,5.1-0.6,7.7-0.6
		c4.7,0,8.8,0.5,12.1,1.4c3.4,0.9,6.1,2.3,8.3,4.3c2.2,1.9,3.7,4.4,4.7,7.4s1.5,6.6,1.5,10.8L722.8,123.2L722.8,123.2z M706.1,97.4
		h-6.5c-2.8,0-5.1,0.2-7,0.6c-1.9,0.4-3.5,1-4.7,1.8s-2.1,1.8-2.7,2.9c-0.6,1.2-0.8,2.5-0.8,4c0,2.5,0.8,4.5,2.4,6
		c1.6,1.4,3.8,2.2,6.7,2.2c2.4,0,4.6-0.6,6.6-1.8s4-3,6.1-5.3L706.1,97.4L706.1,97.4z"/>
</g>
<g id="icon_00000049919590571537608740000005982392683411957410_">
	<path id="cat" fill="#FFFFFF" d="M136.5,85.2c-1.9,4.7-4.6,8.8-7.5,12.7c-3.7,4.9-8.4,8.9-13.3,12.6c-1.9,1.4-3.8,3-6,4.1
		c-0.7,0.3-0.9,0.8-1.2,1.5c-0.5,1.9-1,3.7-1.7,5.5c-2.9,7.6-7.5,14-14.3,18.6c-0.8,0.5-1.3,0.6-1.9-0.2c-1.6-1.8-3.6-2.9-6-3.4
		c-0.8-0.2-1-0.4-1-1.2c-0.1-2.8-0.5-5.5-1.5-8.1c-2.5-6.4-8.8-11.1-15.4-10.3c0.1,0.1,0.2,0.3,0.3,0.3c8,2.5,12.1,8,12,16.3
		c0,2-0.3,3.9-2.7,4.6c-0.7,0.2-1.3,0.6-1.9,1.3c0.3,0,0.5,0,0.7,0c3.2-0.8,6.4-0.7,9.4,0.4c2.6,0.9,4.2,2.8,4.3,5.7
		c0,0.5,0.1,0.7,0.3,0.8c0.1,0.1,0.3,0.1,0.5,0.1l-37,2.8l-0.1-0.1c-0.3-0.3-0.4-0.4-0.7-0.5c-3.9-1.9-7.1-4.4-9.5-8
		c-2.1-3.3-3.1-6.9-3.1-10.8c0-2.6,0.4-5.3,1.4-7.9c2.3-6.1,6.1-11.1,11.3-15.2c2.4-1.9,4.7-3.6,7.2-5.4c0.6-0.4,1-0.4,1.8-0.3
		c2.5,0.5,5.3,0.4,7-0.2c-0.8-0.2-1.4-0.4-2.1-0.6c-4.1-1-7.7-2.8-10.9-5.5c-3.5-2.9-6.1-6.6-7.1-11c-0.4-1.9-0.8-3.9-0.7-5.9
		c0.3-3,0.8-6.1-0.9-9c-0.8-1.4-1.2-3.1-1.5-4.7c-1.3-4.9-1.7-9.9-0.8-14.9c0.5-2.5,1.2-4.7,5.1-4.7c0.8,0,1.4,0,2.1,0.1
		c6.4,0.4,12.3,2.5,17.5,6.4c0.6,0.4,0.9,0.4,1.5,0.1c1.7-0.8,3.4-1.6,5.3-2c1.8-0.5,3.6-1.1,5.3-0.9c1.5,0.1,1.8-1.1,0.2-1.3
		c-0.8-0.1-1-0.4-0.8-1.1c1.5-3.6,3.1-7.3,5.8-10.3l0.8-0.8c1.5-1.4,2.5-1.4,4.1,0.5c3,3.6,4.8,7.7,6.1,12.1
		c0.2,0.7,0.2,1.4,0.8,1.9c4.2,3.2,8,7,11,11.4c1.9,2.7,3.9,5.3,5.8,7.9c0.7,0.9,0.3,1-0.5,1.2c-1.4,0.3-1.7,0.9-0.7,1.8
		c1.6,1.4,1.4,3.2,1.1,4.8c-1.1,7.4-5.1,13-11.1,17.4c0.9,0.2,1.6-0.3,2.4-0.6c5.7-2.2,9.9-6.2,13.7-10.7c2.1-2.5,4-5.4,6.4-7.7
		c1.8-1.6,4.6-2,6.6-0.9c0.6,0.3,0.6,0.7,0.1,1.1c-0.8,0.8-1.4,1.9-1.9,2.9c0.8-0.7,1.8-1.2,2.7-1.7c0.8-0.4,1.4-0.8,2.2,0.3
		c1,1.5,1.2,2.4,0.3,3.3c-0.5,0.5-1,1-1.2,1.9c0.8-0.3,1.5-0.5,2.3-0.8C137.2,82.5,137,83.9,136.5,85.2z"/>
	<path id="leg" fill="#FFFFFF" d="M125,143.7v0.2l-19,1.3c0.1-0.2,0.1,0,0.2-0.2l0.1-0.1c-2-1.6-3.4-3.8-4.5-6.1
		c-0.3-0.6-0.3-0.9,0.1-1.5c3.4-4.6,5.8-9.7,7.5-15.1c0.3-0.8,0.3-1.5,0.9-2.2c1,4.7,2.6,9,4.5,13.2c0.3,0.6,0.6,0.6,1.1,0.6
		c2.7,0,5,1,7,2.9C124.9,138.7,125.2,141.1,125,143.7z"/>
	<path id="frame" fill="#3A3F48" d="M150.6,140.7c-1,0.6-2,1.1-3.1,1.4c-0.4,0.1-0.8,0.2-1.3,0.2c-6.5,0.5-13,1-19.4,1.5
		c-0.6,0-1.2,0.1-1.7,0.1v-0.2c0.2-2.6-0.2-5.1-2.1-7c-1.9-1.9-4.2-2.9-7-2.9c-0.5,0-0.8,0-1.1-0.6c-1.9-4.2-3.5-8.6-4.5-13.2
		c-0.6,0.7-0.6,1.4-0.9,2.2c-1.8,5.3-4.1,10.5-7.5,15.1c-0.4,0.6-0.4,0.9-0.1,1.5c1.1,2.3,2.5,4.5,4.5,6.1l-0.1,0.1
		c-0.2,0.2-0.1,0.1-0.2,0.2l-13.4,1l-3.1,0.2c-0.2,0-0.4,0-0.5-0.1c-0.2-0.2-0.3-0.3-0.3-0.8c-0.1-2.9-1.7-4.7-4.3-5.7
		c-3.1-1.1-6.2-1.3-9.4-0.4h-0.7c0.6-0.7,1.2-1.1,1.9-1.3c2.4-0.7,2.7-2.5,2.7-4.6c0.1-8.3-4-13.7-12-16.3c-0.2,0-0.3-0.2-0.3-0.3
		c6.6-0.8,12.9,3.8,15.4,10.3c1,2.6,1.4,5.3,1.5,8.1c0,0.8,0.2,1,1,1.2c2.4,0.5,4.4,1.6,6,3.4c0.7,0.8,1.2,0.7,1.9,0.2
		c6.9-4.6,11.4-10.9,14.3-18.6c0.7-1.8,1.2-3.6,1.7-5.5c0.3-0.7,0.5-1.2,1.2-1.5c2.2-1.1,4.1-2.6,6-4.1c4.9-3.7,9.6-7.7,13.3-12.6
		c3-3.9,5.7-8.1,7.5-12.7c0.5-1.3,0.7-2.7,0.3-4.6c-0.8,0.2-1.5,0.5-2.3,0.8c0.2-0.8,0.7-1.4,1.2-1.9c0.9-0.9,0.8-1.8-0.2-3.3
		c-0.8-1.1-1.4-0.7-2.2-0.3c-0.9,0.5-1.9,1-2.7,1.7c0.4-1,1.1-2,1.9-2.9c0.5-0.4,0.5-0.8-0.1-1.1c-2-1.1-4.8-0.7-6.6,0.9
		c-2.5,2.3-4.3,5.2-6.4,7.7c-3.8,4.5-8,8.5-13.7,10.7c-0.8,0.2-1.4,0.8-2.4,0.6c6-4.3,10-10,11.1-17.4c0.2-1.6,0.5-3.4-1.1-4.8
		c-1-0.8-0.7-1.5,0.7-1.8c0.8-0.2,1.2-0.2,0.5-1.2c-1.9-2.6-3.9-5.2-5.8-7.9c-3-4.3-6.8-8.1-11-11.3c-0.7-0.5-0.7-1.2-0.8-1.9
		c-1.3-4.4-3.1-8.6-6.1-12.1c-1.5-1.9-2.5-1.9-4.1-0.5l-0.8,0.8c-2.6,3-4.2,6.6-5.8,10.3c-0.3,0.7-0.1,1,0.8,1.1
		c1.6,0.2,1.4,1.4-0.2,1.3c-1.8-0.2-3.6,0.4-5.3,0.9c-1.9,0.4-3.6,1.2-5.3,2c-0.6,0.3-0.9,0.3-1.5-0.1c-5.2-3.9-11-5.9-17.5-6.4
		c-0.7-0.1-1.4-0.1-2.1-0.1c-3.9,0-4.6,2.1-5.1,4.7c-0.9,5-0.5,10,0.8,14.9c0.3,1.6,0.8,3.3,1.5,4.7c1.7,2.9,1.2,6,0.9,9
		c-0.2,2,0.3,4.1,0.7,5.9c1,4.4,3.6,8.1,7.1,11c3.2,2.7,6.9,4.5,10.9,5.5c0.7,0.2,1.4,0.4,2.1,0.6c-1.8,0.6-4.6,0.7-7,0.2
		c-0.8-0.1-1.2-0.1-1.8,0.3c-2.5,1.8-4.8,3.6-7.2,5.4c-5.2,4.1-9,9.1-11.3,15.2c-1,2.5-1.4,5.3-1.4,7.9c0,3.8,1,7.5,3.1,10.8
		c2.4,3.6,5.6,6.1,9.5,8c0.3,0.1,0.4,0.3,0.7,0.5l0.1,0.1l-11.7,0.9h-0.2c-0.4,0-0.8,0-1.4-0.1c-3.7-0.3-6.6-2.1-8.9-5.1
		c-2-2.7-2.9-5.8-3.1-9.1c-2.1-24.2-7.9-97.7-8.8-110.1c-0.2-2.7-0.1-5.3,1.6-7.6c1.2-1.6,4-2.8,6-2.8c3.3,0.1,5.7,2,8.1,3.7
		c4.9,3.4,25,16.9,30.2,20.2c1.9,1.2,3.8,2.7,5.8,3.9c1.1,0.7,2.1,1.9,3.8,1.4c0.5-0.2,0.8-0.2,1-0.7c0.9-1.6,1.4-3.5,2.4-4.9
		c1.4-2.1,3-4.4,4.8-6.3c0.9-1,2-2,3.2-2.7c2.5-1.5,5.7-1.5,7.8,1.2c2.6,3.3,4.3,7,6.2,10.9c2-1.9,31.9-29.7,36-33.1
		c4.9-4,12-1.9,13,4.9c0.2,0.9,0.8,8.9,1.7,20.2v0c0.1,1,0.2,2.1,0.2,3.2c1,12.6,2.2,28.7,3.4,43.8c0.1,0.8,0.1,1.5,0.2,2.3
		c1.5,19.9,2.9,37.9,3.3,43.7C157.9,132.8,155.7,137.5,150.6,140.7z"/>
	<path id="play" fill="#6C429A" d="M179.2,69.5c-0.7,1.4-1.8,2.5-3.1,3c-2.8,1.3-14.1,5.5-22.1,8.4c-2.9,1-5.3,1.9-6.8,2.4
		c-1.5,0.5-1.4-0.5-1.4-1.3c-0.2-3.1-1.3-5.9-3-8.5c-1.8-2.7-3.9-4.7-6.2-5.8c-4.7-2.3-10.1-1.3-15,3.2c-0.4,0.4-0.9,0.9-1.5,1.3
		c-0.5-0.7,2.8-18,5.4-30.8c1.4-6.8,2.5-12.3,2.7-13.4c1.2-5.5,6.9-7.3,11.3-3.8c3.8,3,7.4,6.3,10.9,9.6v0c2.9,2.7,5.7,5.4,8.6,8.1
		c3,2.8,15.4,14.4,18.1,16.9C180.1,62,180.9,65.8,179.2,69.5z"/>
	<g id="left-eye">
		<path fill="#3A3F48" d="M80.1,67.3c0,3.2-2.3,5.5-5.5,5.4c-3.6,0.3-6.4-3.1-6.3-6.5c0.2-3,1.8-6.3,5.3-6.1
			C77.1,60.3,80,63.2,80.1,67.3z"/>
		<path fill="#FFFFFF" d="M77.9,65.4c0.1,0.9-0.5,1.4-1.2,1.4c-0.7,0.1-1.5-1.4-1.4-2.5c0-0.5,0.1-1.2,1-1.1
			C77.1,63.2,77.8,64.3,77.9,65.4z"/>
	</g>
	<g id="right-eye">
		<path fill="#3A3F48" d="M100.7,63.3c-0.5,1.6-1.9,2.7-3.7,2.4c-1.4,0.5-3,0.2-4.3-0.8c-2.4-1.7-3.6-6-2.1-8.4
			c1.7-2.6,4.2-2.5,6.5-1.4C100.2,56.5,101.7,60.1,100.7,63.3z"/>
		<path fill="#FFFFFF" d="M99.1,59.9c0,0.6,0.1,1.3-0.8,1.2c-0.8-0.1-1.8-1.3-1.8-2.3c0-0.6,0.1-1.2,0.9-1.2
			C98.2,57.6,99.2,58.8,99.1,59.9z"/>
	</g>
	<path fill="#3A3F48" d="M99.9,77.9c0,1.7-1.9,4.1-3.7,4.3c-1.4,0.2-2.8,0.2-4-0.1c-1.2-0.3-1.8-0.3-2.5,0.7
		c-1.5,1.6-4.9,3.1-10.9,0.8c-0.6-0.4-0.9-0.9-1-1.7c0-0.5-0.1-0.9,0.4-1.4c0.6-0.5,0.9,0.1,1.3,0.2c0.9,0.7,1.9,1,3.1,1.4
		c2.8,1.1,5.3-1.7,5.7-3.9c0.1-0.4,0.2-1,0.2-1.4c0-1,0.3-2.3-1.4-2.7c-1.1-0.3-2.7-0.7-2.5-2.2c0.3-1.7,1.8-2.3,3.3-2.6
		c0.7-0.2,1.4-0.1,2.2-0.1c0.8,0,1.8-0.3,2.3,0.7c0.5,1,0.4,1.9-0.3,2.8c-0.8,1-1.4,2-0.8,3.6c1,2.8,2.7,3.6,5.3,2.1
		c0.8-0.4,1.3-0.9,1.8-1.5c0.3-0.3,0.3-1.3,1-1C99.8,76.4,99.9,77.2,99.9,77.9z"/>
</g>
</svg>
